<?xml version="1.0" encoding="utf-8"?>
<!-- Generator: Adobe Illustrator 23.0.1, SVG Export Plug-In . SVG Version: 6.00 Build 0)  -->
<svg version="1.1" id="Слой_1" xmlns="http://www.w3.org/2000/svg" xmlns:xlink="http://www.w3.org/1999/xlink" x="0px" y="0px"
	 viewBox="0 0 40 40" style="enable-background:new 0 0 40 40;" xml:space="preserve">
<style type="text/css">
	.st0{fill:#29B6F6;}
	.st1{fill:#FFFFFF;}
</style>
<circle class="st0" cx="20" cy="20" r="19.5"/>
<path class="st1" d="M9.4,20.4l4.6,1.7l1.8,5.8c0.1,0.4,0.5,0.5,0.9,0.2l2.6-2.1c0.2-0.2,0.6-0.2,0.9,0l4.6,3.4
	c0.3,0.2,0.8,0.1,0.9-0.3L29,12.7c0.1-0.4-0.3-0.8-0.7-0.6L9.4,19.4C8.9,19.5,8.9,20.2,9.4,20.4z M15.5,21.2l9-5.5
	c0.2-0.1,0.3,0.2,0.2,0.2l-7.4,6.9c-0.2,0.2-0.5,0.5-0.5,0.9l-0.2,1.9c0,0.2-0.4,0.3-0.5,0l-0.9-3.4C15,21.9,15.1,21.4,15.5,21.2z"
	/>
</svg>
