<?xml version="1.0" encoding="utf-8"?>
<!-- Generator: Adobe Illustrator 23.0.1, SVG Export Plug-In . SVG Version: 6.00 Build 0)  -->
<svg version="1.1" id="Слой_1" xmlns="http://www.w3.org/2000/svg" xmlns:xlink="http://www.w3.org/1999/xlink" x="0px" y="0px"
	 viewBox="0 0 40 40" style="enable-background:new 0 0 40 40;" xml:space="preserve">
<style type="text/css">
	.st0{fill:#43D854;}
	.st1{fill:#FFFFFF;}
</style>
<circle class="st0" cx="20" cy="20" r="19"/>
<path class="st1" d="M27.9,12.1c-2-2-4.6-3.1-7.4-3.1c-5.8,0-10.5,4.7-10.5,10.4c0,1.8,0.5,3.6,1.4,5.2L10,30l5.6-1.5
	c1.5,0.8,3.2,1.2,5,1.2c5.8,0,10.5-4.7,10.5-10.4C30.9,16.7,29.9,14,27.9,12.1z M25.6,23.1c-0.2,0.6-1.2,1.2-1.8,1.2
	c-0.4,0.1-1,0.1-1.6-0.1c-0.4-0.1-0.9-0.3-1.5-0.6c-2.6-1.1-4.3-3.7-4.5-3.9c-0.1-0.1-1.1-1.4-1.1-2.7s0.7-1.9,0.9-2.2
	c0.2-0.3,0.5-0.3,0.7-0.3c0.1,0,0.4,0,0.5,0c0.1,0,0.4-0.1,0.6,0.4c0.2,0.5,0.7,1.8,0.8,1.9c0.1,0.1,0.1,0.3,0,0.4
	c-0.1,0.1-0.1,0.3-0.3,0.4c-0.1,0.1-0.3,0.4-0.4,0.4c-0.1,0.1-0.3,0.3-0.1,0.5c0.1,0.3,0.7,1.1,1.5,1.8c1,0.9,1.8,1.2,2.1,1.3
	c0.3,0.1,0.4,0.1,0.6-0.1c0.1-0.1,0.7-0.7,0.8-1c0.1-0.3,0.4-0.2,0.6-0.1c0.2,0.1,1.5,0.7,1.8,0.9c0.3,0.1,0.4,0.2,0.5,0.3
	C25.8,22.1,25.8,22.6,25.6,23.1z"/>
</svg>
